<mxfile host="app.diagrams.net" modified="2022-10-10T03:58:02.453Z" agent="5.0 (Macintosh; Intel Mac OS X 10_15_7) AppleWebKit/537.36 (KHTML, like Gecko) Chrome/104.0.0.0 Safari/537.36" etag="76UbZwYIVtHzVOWHh6RI" version="20.3.0" type="github">
  <diagram id="qqv-_MiNMEPouD1MokRE" name="第 1 页">
    <mxGraphModel dx="850" dy="455" grid="1" gridSize="10" guides="1" tooltips="1" connect="1" arrows="1" fold="1" page="1" pageScale="1" pageWidth="827" pageHeight="1169" math="0" shadow="0">
      <root>
        <mxCell id="0" />
        <mxCell id="1" parent="0" />
        <mxCell id="NMtHYim2oVp211Jrsxey-18" value="" style="edgeStyle=orthogonalEdgeStyle;rounded=0;orthogonalLoop=1;jettySize=auto;html=1;fontSize=14;" edge="1" parent="1" source="NMtHYim2oVp211Jrsxey-1" target="NMtHYim2oVp211Jrsxey-2">
          <mxGeometry relative="1" as="geometry" />
        </mxCell>
        <mxCell id="NMtHYim2oVp211Jrsxey-1" value="代码托管平台" style="html=1;dashed=0;whitespace=wrap;shape=partialRectangle;right=0;left=0;fontSize=14;" vertex="1" parent="1">
          <mxGeometry x="150" y="120" width="100" height="30" as="geometry" />
        </mxCell>
        <mxCell id="NMtHYim2oVp211Jrsxey-2" value="数据获取" style="shape=ellipse;html=1;dashed=0;whitespace=wrap;perimeter=ellipsePerimeter;fontSize=14;" vertex="1" parent="1">
          <mxGeometry x="155" y="190" width="90" height="40" as="geometry" />
        </mxCell>
        <mxCell id="NMtHYim2oVp211Jrsxey-21" value="" style="edgeStyle=orthogonalEdgeStyle;rounded=0;orthogonalLoop=1;jettySize=auto;html=1;fontSize=14;" edge="1" parent="1" source="NMtHYim2oVp211Jrsxey-3" target="NMtHYim2oVp211Jrsxey-4">
          <mxGeometry relative="1" as="geometry" />
        </mxCell>
        <mxCell id="NMtHYim2oVp211Jrsxey-3" value="处理过的结构化数据" style="html=1;dashed=0;whitespace=wrap;shape=partialRectangle;right=0;left=0;fontSize=14;" vertex="1" parent="1">
          <mxGeometry x="150" y="270" width="100" height="30" as="geometry" />
        </mxCell>
        <mxCell id="NMtHYim2oVp211Jrsxey-22" value="" style="edgeStyle=orthogonalEdgeStyle;rounded=0;orthogonalLoop=1;jettySize=auto;html=1;fontSize=14;" edge="1" parent="1" source="NMtHYim2oVp211Jrsxey-4" target="NMtHYim2oVp211Jrsxey-5">
          <mxGeometry relative="1" as="geometry" />
        </mxCell>
        <mxCell id="NMtHYim2oVp211Jrsxey-4" value="建立索引" style="shape=ellipse;html=1;dashed=0;whitespace=wrap;perimeter=ellipsePerimeter;fontSize=14;" vertex="1" parent="1">
          <mxGeometry x="155" y="340" width="90" height="40" as="geometry" />
        </mxCell>
        <mxCell id="NMtHYim2oVp211Jrsxey-23" value="" style="edgeStyle=orthogonalEdgeStyle;rounded=0;orthogonalLoop=1;jettySize=auto;html=1;fontSize=14;" edge="1" parent="1" source="NMtHYim2oVp211Jrsxey-5" target="NMtHYim2oVp211Jrsxey-6">
          <mxGeometry relative="1" as="geometry" />
        </mxCell>
        <mxCell id="NMtHYim2oVp211Jrsxey-5" value="索引库" style="html=1;dashed=0;whitespace=wrap;shape=partialRectangle;right=0;left=0;fontSize=14;" vertex="1" parent="1">
          <mxGeometry x="150" y="430" width="100" height="30" as="geometry" />
        </mxCell>
        <mxCell id="NMtHYim2oVp211Jrsxey-6" value="搜索" style="shape=ellipse;html=1;dashed=0;whitespace=wrap;perimeter=ellipsePerimeter;fontSize=14;" vertex="1" parent="1">
          <mxGeometry x="320" y="425" width="90" height="40" as="geometry" />
        </mxCell>
        <mxCell id="NMtHYim2oVp211Jrsxey-25" value="" style="edgeStyle=orthogonalEdgeStyle;rounded=0;orthogonalLoop=1;jettySize=auto;html=1;fontSize=14;" edge="1" parent="1" source="NMtHYim2oVp211Jrsxey-7" target="NMtHYim2oVp211Jrsxey-8">
          <mxGeometry relative="1" as="geometry" />
        </mxCell>
        <mxCell id="NMtHYim2oVp211Jrsxey-7" value="用户搜索日志" style="html=1;dashed=0;whitespace=wrap;shape=partialRectangle;right=0;left=0;fontSize=14;" vertex="1" parent="1">
          <mxGeometry x="315" y="270" width="100" height="30" as="geometry" />
        </mxCell>
        <mxCell id="NMtHYim2oVp211Jrsxey-27" value="" style="edgeStyle=orthogonalEdgeStyle;rounded=0;orthogonalLoop=1;jettySize=auto;html=1;fontSize=14;" edge="1" parent="1" source="NMtHYim2oVp211Jrsxey-8" target="NMtHYim2oVp211Jrsxey-9">
          <mxGeometry relative="1" as="geometry" />
        </mxCell>
        <mxCell id="NMtHYim2oVp211Jrsxey-8" value="数据预处理" style="shape=ellipse;html=1;dashed=0;whitespace=wrap;perimeter=ellipsePerimeter;fontSize=14;" vertex="1" parent="1">
          <mxGeometry x="320" y="190" width="90" height="40" as="geometry" />
        </mxCell>
        <mxCell id="NMtHYim2oVp211Jrsxey-28" value="" style="edgeStyle=orthogonalEdgeStyle;rounded=0;orthogonalLoop=1;jettySize=auto;html=1;fontSize=14;" edge="1" parent="1" source="NMtHYim2oVp211Jrsxey-9" target="NMtHYim2oVp211Jrsxey-12">
          <mxGeometry relative="1" as="geometry" />
        </mxCell>
        <mxCell id="NMtHYim2oVp211Jrsxey-9" value="分词去重" style="shape=ellipse;html=1;dashed=0;whitespace=wrap;perimeter=ellipsePerimeter;fontSize=14;" vertex="1" parent="1">
          <mxGeometry x="490" y="190" width="90" height="40" as="geometry" />
        </mxCell>
        <mxCell id="NMtHYim2oVp211Jrsxey-10" value="分词词库" style="html=1;dashed=0;whitespace=wrap;shape=partialRectangle;right=0;left=0;fontSize=14;" vertex="1" parent="1">
          <mxGeometry x="485" y="270" width="100" height="30" as="geometry" />
        </mxCell>
        <mxCell id="NMtHYim2oVp211Jrsxey-29" value="" style="edgeStyle=orthogonalEdgeStyle;rounded=0;orthogonalLoop=1;jettySize=auto;html=1;fontSize=14;" edge="1" parent="1" source="NMtHYim2oVp211Jrsxey-12" target="NMtHYim2oVp211Jrsxey-13">
          <mxGeometry relative="1" as="geometry" />
        </mxCell>
        <mxCell id="NMtHYim2oVp211Jrsxey-12" value="新词候选词集合" style="html=1;dashed=0;whitespace=wrap;shape=partialRectangle;right=0;left=0;fontSize=14;" vertex="1" parent="1">
          <mxGeometry x="670" y="195" width="100" height="30" as="geometry" />
        </mxCell>
        <mxCell id="NMtHYim2oVp211Jrsxey-30" value="" style="edgeStyle=orthogonalEdgeStyle;rounded=0;orthogonalLoop=1;jettySize=auto;html=1;fontSize=14;" edge="1" parent="1" source="NMtHYim2oVp211Jrsxey-13" target="NMtHYim2oVp211Jrsxey-15">
          <mxGeometry relative="1" as="geometry" />
        </mxCell>
        <mxCell id="NMtHYim2oVp211Jrsxey-13" value="计算指标" style="shape=ellipse;html=1;dashed=0;whitespace=wrap;perimeter=ellipsePerimeter;fontSize=14;" vertex="1" parent="1">
          <mxGeometry x="675" y="265" width="90" height="40" as="geometry" />
        </mxCell>
        <mxCell id="NMtHYim2oVp211Jrsxey-31" value="" style="edgeStyle=orthogonalEdgeStyle;rounded=0;orthogonalLoop=1;jettySize=auto;html=1;fontSize=14;" edge="1" parent="1" source="NMtHYim2oVp211Jrsxey-15" target="NMtHYim2oVp211Jrsxey-16">
          <mxGeometry relative="1" as="geometry" />
        </mxCell>
        <mxCell id="NMtHYim2oVp211Jrsxey-15" value="新词集合" style="html=1;dashed=0;whitespace=wrap;shape=partialRectangle;right=0;left=0;fontSize=14;" vertex="1" parent="1">
          <mxGeometry x="670" y="345" width="100" height="30" as="geometry" />
        </mxCell>
        <mxCell id="NMtHYim2oVp211Jrsxey-32" value="" style="edgeStyle=orthogonalEdgeStyle;rounded=0;orthogonalLoop=1;jettySize=auto;html=1;fontSize=14;" edge="1" parent="1" source="NMtHYim2oVp211Jrsxey-16" target="NMtHYim2oVp211Jrsxey-10">
          <mxGeometry relative="1" as="geometry" />
        </mxCell>
        <mxCell id="NMtHYim2oVp211Jrsxey-16" value="新词过滤" style="shape=ellipse;html=1;dashed=0;whitespace=wrap;perimeter=ellipsePerimeter;fontSize=14;" vertex="1" parent="1">
          <mxGeometry x="490" y="340" width="90" height="40" as="geometry" />
        </mxCell>
        <mxCell id="NMtHYim2oVp211Jrsxey-33" value="" style="edgeStyle=orthogonalEdgeStyle;rounded=0;orthogonalLoop=1;jettySize=auto;html=1;fontSize=14;" edge="1" parent="1" source="NMtHYim2oVp211Jrsxey-17" target="NMtHYim2oVp211Jrsxey-6">
          <mxGeometry relative="1" as="geometry" />
        </mxCell>
        <mxCell id="NMtHYim2oVp211Jrsxey-17" value="用户" style="html=1;dashed=0;whitespace=wrap;fontSize=14;" vertex="1" parent="1">
          <mxGeometry x="487.5" y="425" width="95" height="40" as="geometry" />
        </mxCell>
        <mxCell id="NMtHYim2oVp211Jrsxey-20" value="" style="endArrow=classic;html=1;rounded=0;exitX=0.5;exitY=1;exitDx=0;exitDy=0;entryX=0.5;entryY=0;entryDx=0;entryDy=0;fontSize=14;" edge="1" parent="1" source="NMtHYim2oVp211Jrsxey-2" target="NMtHYim2oVp211Jrsxey-3">
          <mxGeometry width="50" height="50" relative="1" as="geometry">
            <mxPoint x="390" y="280" as="sourcePoint" />
            <mxPoint x="440" y="230" as="targetPoint" />
          </mxGeometry>
        </mxCell>
        <mxCell id="NMtHYim2oVp211Jrsxey-24" value="" style="endArrow=classic;html=1;rounded=0;exitX=0.5;exitY=0;exitDx=0;exitDy=0;entryX=0.5;entryY=1;entryDx=0;entryDy=0;fontSize=14;" edge="1" parent="1" source="NMtHYim2oVp211Jrsxey-6" target="NMtHYim2oVp211Jrsxey-7">
          <mxGeometry width="50" height="50" relative="1" as="geometry">
            <mxPoint x="385" y="280" as="sourcePoint" />
            <mxPoint x="435" y="230" as="targetPoint" />
          </mxGeometry>
        </mxCell>
        <mxCell id="NMtHYim2oVp211Jrsxey-26" value="" style="endArrow=classic;html=1;rounded=0;exitX=1;exitY=0.5;exitDx=0;exitDy=0;entryX=0.5;entryY=0;entryDx=0;entryDy=0;fontSize=14;" edge="1" parent="1" source="NMtHYim2oVp211Jrsxey-1" target="NMtHYim2oVp211Jrsxey-8">
          <mxGeometry width="50" height="50" relative="1" as="geometry">
            <mxPoint x="390" y="280" as="sourcePoint" />
            <mxPoint x="440" y="230" as="targetPoint" />
            <Array as="points">
              <mxPoint x="365" y="135" />
            </Array>
          </mxGeometry>
        </mxCell>
        <mxCell id="NMtHYim2oVp211Jrsxey-34" value="" style="endArrow=classic;html=1;rounded=0;exitX=1;exitY=0;exitDx=0;exitDy=0;entryX=0.5;entryY=0;entryDx=0;entryDy=0;fontSize=14;" edge="1" parent="1" source="NMtHYim2oVp211Jrsxey-6" target="NMtHYim2oVp211Jrsxey-17">
          <mxGeometry width="50" height="50" relative="1" as="geometry">
            <mxPoint x="390" y="350" as="sourcePoint" />
            <mxPoint x="440" y="300" as="targetPoint" />
            <Array as="points">
              <mxPoint x="397" y="400" />
              <mxPoint x="535" y="400" />
            </Array>
          </mxGeometry>
        </mxCell>
        <mxCell id="NMtHYim2oVp211Jrsxey-35" value="分词" style="text;html=1;strokeColor=none;fillColor=none;align=center;verticalAlign=middle;whiteSpace=wrap;rounded=0;fontSize=14;" vertex="1" parent="1">
          <mxGeometry x="190" y="230" width="60" height="30" as="geometry" />
        </mxCell>
        <mxCell id="NMtHYim2oVp211Jrsxey-36" value="查询请求" style="text;html=1;strokeColor=none;fillColor=none;align=center;verticalAlign=middle;whiteSpace=wrap;rounded=0;fontSize=14;" vertex="1" parent="1">
          <mxGeometry x="415" y="450" width="60" height="30" as="geometry" />
        </mxCell>
        <mxCell id="NMtHYim2oVp211Jrsxey-37" value="查询结果" style="text;html=1;strokeColor=none;fillColor=none;align=center;verticalAlign=middle;whiteSpace=wrap;rounded=0;fontSize=14;" vertex="1" parent="1">
          <mxGeometry x="414" y="370" width="60" height="30" as="geometry" />
        </mxCell>
      </root>
    </mxGraphModel>
  </diagram>
</mxfile>
